<svg width="180" height="47" viewBox="0 0 180 47" fill="none" xmlns="http://www.w3.org/2000/svg">
<mask id="mask0_825_232" style="mask-type:luminance" maskUnits="userSpaceOnUse" x="0" y="0" width="150" height="39">
<path d="M150 0.597839H0V38.7299H150V0.597839Z" fill="white"/>
</mask>
<g mask="url(#mask0_825_232)">
<path d="M41.0216 35.1753L37.0497 27.449H35.7886H34.1083H21.4082V30.0543H35.4429L39.8822 38.7312H42.1194L47.8677 27.449H44.9296L41.0216 35.1753Z" fill="#54B948"/>
<path d="M58.9738 27.4548H52.3453C51.3211 27.4548 50.4505 27.794 49.7336 28.4726C49.0167 29.1511 48.6582 30.0025 48.6582 31.0235V35.1651C48.6582 36.1893 49.0167 37.0374 49.7336 37.7159C50.4505 38.3945 51.3211 38.7338 52.3453 38.7338H58.9738C59.998 38.7338 60.8686 38.3945 61.5855 37.7159C62.3024 37.0374 62.6609 36.1861 62.6609 35.1651V31.0235C62.6609 30.0025 62.3024 29.1511 61.5855 28.4726C60.8686 27.794 59.998 27.4548 58.9738 27.4548ZM60.0268 35.1587C60.0268 35.786 59.6747 36.0996 58.9738 36.0996H52.3453C51.6444 36.0996 51.2923 35.786 51.2923 35.1587V31.0267C51.2923 30.3993 51.6444 30.0856 52.3453 30.0856H58.9738C59.6779 30.0856 60.0268 30.3993 60.0268 31.0267V35.1587Z" fill="#54B948"/>
<path d="M73.1716 27.449V34.9993L66.3897 27.449H63.7588V38.7312H66.3897V31.1393L73.1716 38.7312H75.8057V27.449H73.1716Z" fill="#54B948"/>
<path d="M24.0423 34.406H32.844V31.7911H21.4082V38.73H33.4362V36.0959H24.0423V34.406Z" fill="#54B948"/>
<path d="M84.233 33.9687L79.6656 27.449H76.9004V38.7312H79.5345V31.8627L84.233 38.5551L88.9287 31.8627V38.7312H91.5627V27.449H88.8192L84.233 33.9687Z" fill="#0081C6"/>
<path d="M114.514 27.449H92.7432V30.0832H114.537C115.212 30.0832 115.548 30.3968 115.548 31.0241V35.1561C115.548 35.7835 115.208 36.0971 114.537 36.0971H108.44V31.6194H105.805V38.728H114.517C115.542 38.728 116.409 38.3887 117.116 37.7102C117.826 37.0316 118.182 36.1803 118.182 35.1593V31.0177C118.182 29.9967 117.826 29.1453 117.116 28.4668C116.405 27.7883 115.542 27.449 114.517 27.449H114.514Z" fill="#0081C6"/>
<path d="M121.911 27.449H119.277V38.728H121.911V27.449Z" fill="#0081C6"/>
<path d="M149.142 32.8203C148.527 32.1226 147.749 31.7705 146.812 31.7705H139.71C139.341 31.7705 139.159 31.4921 139.159 30.9384C139.159 30.3847 139.341 30.0806 139.71 30.0806H149.475V27.4465H139.729C138.794 27.4465 138.026 27.7921 137.424 28.4771C136.823 29.1652 136.525 29.9846 136.525 30.9352C136.525 31.8858 136.816 32.6891 137.402 33.3484C138.017 34.0494 138.791 34.4014 139.729 34.4014H146.818C147.183 34.4014 147.365 34.6831 147.365 35.2464C147.365 35.8097 147.183 36.0913 146.818 36.0913H126.696C125.995 36.0913 125.643 35.7776 125.643 35.1503V31.0184C125.643 30.391 125.995 30.0774 126.696 30.0774H135.431V27.4433H126.696C125.672 27.4433 124.801 27.7826 124.084 28.4611C123.367 29.1396 123.009 29.991 123.009 31.0152V35.1536C123.009 36.1778 123.367 37.0259 124.084 37.7045C124.801 38.383 125.672 38.7222 126.696 38.7222H137.075H146.818C147.753 38.7222 148.531 38.3734 149.145 37.6724C149.715 37.0035 149.999 36.1937 149.999 35.2432C149.999 34.2926 149.715 33.4861 149.142 32.8139V32.8203Z" fill="#0081C6"/>
<path d="M95.3648 34.406H104.167V31.7911H92.7344V38.73H104.759V36.0959H95.3648V34.406Z" fill="#0081C6"/>
<path d="M7.02218 24.8448H6.35645V25.5106H7.02218V24.8448Z" fill="#0081C6"/>
<path d="M5.9626 24.8448H5.29688V25.5106H5.9626V24.8448Z" fill="#0081C6"/>
<path d="M4.90303 24.8448H4.2373V25.5106H4.90303V24.8448Z" fill="#0081C6"/>
<path d="M2.78167 24.8448H2.11914V25.5106H2.78167V24.8448Z" fill="#0081C6"/>
<path d="M1.7221 24.8448H1.05957V25.5106H1.7221V24.8448Z" fill="#0081C6"/>
<path d="M0.665727 24.8448H0V25.5106H0.665727V24.8448Z" fill="#0081C6"/>
<path d="M8.47461 23.7805V24.4462H8.68265C8.79468 24.2222 8.92273 24.0014 9.04432 23.7805H8.47461Z" fill="#0081C6"/>
<path d="M8.07465 23.7805H7.41211V24.4462H8.07465V23.7805Z" fill="#0081C6"/>
<path d="M7.02218 23.7805H6.35645V24.4462H7.02218V23.7805Z" fill="#0081C6"/>
<path d="M4.90303 23.7805H4.2373V24.4462H4.90303V23.7805Z" fill="#0081C6"/>
<path d="M3.84026 23.7805H3.17773V24.4462H3.84026V23.7805Z" fill="#0081C6"/>
<path d="M1.7221 23.7805H1.05957V24.4462H1.7221V23.7805Z" fill="#0081C6"/>
<path d="M8.08076 24.8448H7.41504V25.5106H8.08076V24.8448Z" fill="#54B948"/>
<path d="M3.84347 24.8448H3.17773V25.5106H3.84347V24.8448Z" fill="#54B948"/>
<path d="M5.9626 23.7805H5.29688V24.4462H5.9626V23.7805Z" fill="#54B948"/>
<path d="M2.78167 23.7805H2.11914V24.4462H2.78167V23.7805Z" fill="#54B948"/>
<path d="M0.665727 23.7805H0V24.4462H0.665727V23.7805Z" fill="#54B948"/>
<path d="M19.7406 25.5628H29.4704V15.1415H24.9096C17.0009 17.1995 10.9677 22.9255 9.31934 29.9316V35.2894H19.7406V25.5628Z" fill="url(#paint0_linear_825_232)"/>
<path d="M20.0134 21.3444C23.7613 21.3444 27.1252 22.9734 29.4456 25.5596H29.4745V15.1415H24.9135C19.1492 16.6426 14.3835 20.0897 11.583 24.5642C13.8234 22.5638 16.7744 21.3476 20.0134 21.3476V21.3444Z" fill="url(#paint1_linear_825_232)"/>
<path d="M10.1967 18.5001V18.4873H9.53418V19.153V19.1659H10.1967V18.5001Z" fill="#0081C6"/>
<path d="M10.1967 17.4446V17.4286H9.53418V18.0944V18.1071H10.1967V17.4446Z" fill="#0081C6"/>
<path d="M10.1967 16.386V16.37H9.53418V17.0357V17.0485H10.1967V16.386Z" fill="#0081C6"/>
<path d="M10.1967 15.3217V15.3057L9.53418 15.3089V15.9714V15.9842H10.1967V15.3217Z" fill="#0081C6"/>
<path d="M10.1967 13.2054H9.53418V13.8712H10.1967V13.2054Z" fill="#0081C6"/>
<path d="M10.1967 5.13812H9.53418V5.80385H10.1967V5.13812Z" fill="#0081C6"/>
<path d="M10.1967 3.04352H9.53418V3.70924H10.1967V3.04352Z" fill="#0081C6"/>
<path d="M10.1967 0.597778H9.53418V1.2635H10.1967V0.597778Z" fill="#0081C6"/>
<path d="M10.5908 19.153V19.1659H11.2565V18.5001V18.4873H10.5908V19.153Z" fill="#0081C6"/>
<path d="M11.2565 17.4446V17.4286H10.5908V18.0944V18.1071H11.2565V17.4446Z" fill="#0081C6"/>
<path d="M11.2565 15.3217V15.3057L10.5908 15.3089V15.9714V15.9842H11.2565V15.3217Z" fill="#0081C6"/>
<path d="M11.2565 14.264H10.5908V14.9297H11.2565V14.264Z" fill="#0081C6"/>
<path d="M11.2565 13.2054H10.5908V13.8712H11.2565V13.2054Z" fill="#0081C6"/>
<path d="M11.2565 12.1467H10.5908V12.8125H11.2565V12.1467Z" fill="#0081C6"/>
<path d="M10.9099 10.0464H10.2441V10.7122H10.9099V10.0464Z" fill="#0081C6"/>
<path d="M11.9499 8.6424H11.2842V9.30812H11.9499V8.6424Z" fill="#0081C6"/>
<path d="M11.2565 5.4834H10.5908V6.14912H11.2565V5.4834Z" fill="#0081C6"/>
<path d="M11.2565 1.9848H10.5908V2.65053H11.2565V1.9848Z" fill="#0081C6"/>
<path d="M11.6494 18.0944V18.1071H12.3152V17.4446V17.4286H11.6494V18.0944Z" fill="#0081C6"/>
<path d="M12.3152 16.386V16.37H11.6494V17.0357V17.0485H12.3152V16.386Z" fill="#0081C6"/>
<path d="M12.3152 15.3217V15.3057L11.6494 15.3089V15.9714V15.9842H12.3152V15.3217Z" fill="#0081C6"/>
<path d="M12.3152 14.264H11.6494V14.9297H12.3152V14.264Z" fill="#0081C6"/>
<path d="M12.3152 13.2054H11.6494V13.8712H12.3152V13.2054Z" fill="#0081C6"/>
<path d="M12.3152 11.4561H11.6494V12.1218H12.3152V11.4561Z" fill="#0081C6"/>
<path d="M12.3152 10.0464H11.6494V10.7122H12.3152V10.0464Z" fill="#0081C6"/>
<path d="M13.0095 7.95172H12.3438V8.61745H13.0095V7.95172Z" fill="#0081C6"/>
<path d="M12.3152 6.54211H11.6494V7.20785H12.3152V6.54211Z" fill="#0081C6"/>
<path d="M12.6647 5.4834H11.999V6.14912H12.6647V5.4834Z" fill="#0081C6"/>
<path d="M12.3152 1.28845H11.6494V1.95418H12.3152V1.28845Z" fill="#0081C6"/>
<path d="M12.709 18.4873V19.0667C12.917 18.8682 13.141 18.6793 13.3587 18.4873H12.709Z" fill="#0081C6"/>
<path d="M13.3747 18.1071V17.4446V17.4286H12.709V18.0944V18.1071H13.3747Z" fill="#0081C6"/>
<path d="M13.3747 16.386V16.37H12.709V17.0357V17.0485H13.3747V16.386Z" fill="#0081C6"/>
<path d="M13.3747 15.3217V15.3057L12.709 15.3089V15.9714V15.9842H13.3747V15.3217Z" fill="#0081C6"/>
<path d="M13.3747 13.2054H12.709V13.8712H13.3747V13.2054Z" fill="#0081C6"/>
<path d="M13.3747 12.1467H12.709V12.8125H13.3747V12.1467Z" fill="#0081C6"/>
<path d="M13.3747 10.3974H12.709V11.0599H13.3747V10.3974Z" fill="#0081C6"/>
<path d="M13.3747 4.79279H12.709V5.45852H13.3747V4.79279Z" fill="#0081C6"/>
<path d="M13.3972 3.02075H12.7314V3.68648H13.3972V3.02075Z" fill="#0081C6"/>
<path d="M15.8877 15.9842H16.5534V15.3217V15.3057L15.8877 15.3089V15.9714V15.9842Z" fill="#0081C6"/>
<path d="M16.5534 14.264H15.8877V14.9297H16.5534V14.264Z" fill="#0081C6"/>
<path d="M16.5534 12.1467H15.8877V12.8125H16.5534V12.1467Z" fill="#0081C6"/>
<path d="M16.5534 11.088H15.8877V11.7537H16.5534V11.088Z" fill="#0081C6"/>
<path d="M16.5534 10.0294H15.8877V10.692H16.5534V10.0294Z" fill="#0081C6"/>
<path d="M16.5534 8.96503H15.8877V9.63075H16.5534V8.96503Z" fill="#0081C6"/>
<path d="M16.5534 7.5611H15.8877V8.22682H16.5534V7.5611Z" fill="#0081C6"/>
<path d="M16.5534 6.15717H15.8877V6.82289H16.5534V6.15717Z" fill="#0081C6"/>
<path d="M17.612 15.3227H16.9463V15.9564C17.164 15.8316 17.388 15.7132 17.612 15.598V15.3227Z" fill="#0081C6"/>
<path d="M17.612 14.264H16.9463V14.9297H17.612V14.264Z" fill="#0081C6"/>
<path d="M17.612 12.1467H16.9463V12.8125H17.612V12.1467Z" fill="#0081C6"/>
<path d="M17.612 10.0294H16.9463V10.692H17.612V10.0294Z" fill="#0081C6"/>
<path d="M17.612 8.96503H16.9463V9.63075H17.612V8.96503Z" fill="#0081C6"/>
<path d="M16.9184 4.0625H16.2559V4.72503H16.9184V4.0625Z" fill="#0081C6"/>
<path d="M18.0059 15.3227V15.3968C18.0542 15.3711 18.1025 15.3452 18.1541 15.3227H18.0059Z" fill="#0081C6"/>
<path d="M18.6716 14.264H18.0059V14.9297H18.6716V14.264Z" fill="#0081C6"/>
<path d="M18.6716 13.2054H18.0059V13.8712H18.6716V13.2054Z" fill="#0081C6"/>
<path d="M18.6716 12.1467H18.0059V12.8125H18.6716V12.1467Z" fill="#0081C6"/>
<path d="M18.6716 11.088H18.0059V11.7537H18.6716V11.088Z" fill="#0081C6"/>
<path d="M18.6716 10.0294H18.0059V10.692H18.6716V10.0294Z" fill="#0081C6"/>
<path d="M18.6716 8.96503H18.0059V9.63075H18.6716V8.96503Z" fill="#0081C6"/>
<path d="M18.6716 7.90649H18.0059V8.57222H18.6716V7.90649Z" fill="#0081C6"/>
<path d="M18.6716 6.84778H18.0059V7.5135H18.6716V6.84778Z" fill="#0081C6"/>
<path d="M18.6716 5.78906H18.0059V6.45479H18.6716V5.78906Z" fill="#0081C6"/>
<path d="M19.7312 14.264H19.0654V14.9041C19.2863 14.808 19.504 14.7056 19.7312 14.616V14.264Z" fill="#0081C6"/>
<path d="M19.7312 13.2054H19.0654V13.8712H19.7312V13.2054Z" fill="#0081C6"/>
<path d="M19.7312 12.1467H19.0654V12.8125H19.7312V12.1467Z" fill="#0081C6"/>
<path d="M19.7312 11.088H19.0654V11.7537H19.7312V11.088Z" fill="#0081C6"/>
<path d="M19.7312 8.96503H19.0654V9.63075H19.7312V8.96503Z" fill="#0081C6"/>
<path d="M19.7312 6.84778H19.0654V7.5135H19.7312V6.84778Z" fill="#0081C6"/>
<path d="M9.14033 22.7218H8.47461V23.3843H9.14033V22.7218Z" fill="#0081C6"/>
<path d="M6.35576 22.7216L6.35449 23.3841L7.02022 23.3854L7.02149 22.7229L6.35576 22.7216Z" fill="#0081C6"/>
<path d="M5.29522 22.7216L5.29395 23.3841L5.95968 23.3854L5.96095 22.7229L5.29522 22.7216Z" fill="#0081C6"/>
<path d="M3.17803 22.7216L3.17676 23.3841L3.83928 23.3854L3.84055 22.7229L3.17803 22.7216Z" fill="#0081C6"/>
<path d="M2.11651 22.7216L2.11523 23.3841L2.77776 23.3854L2.77903 22.7229L2.11651 22.7216Z" fill="#0081C6"/>
<path d="M0.000295397 22.7272L-0.000976562 23.3897L0.664751 23.391L0.666022 22.7285L0.000295397 22.7272Z" fill="#0081C6"/>
<path d="M9.13838 21.6619L8.47266 21.6632L8.47389 22.3289L9.13961 22.3277L9.13838 21.6619Z" fill="#0081C6"/>
<path d="M8.07367 21.6619L7.41113 21.6631L7.41244 22.3288L8.07497 22.3276L8.07367 21.6619Z" fill="#0081C6"/>
<path d="M7.02218 21.6633H6.35645V22.329H7.02218V21.6633Z" fill="#0081C6"/>
<path d="M4.90303 21.6633H4.2373V22.329H4.90303V21.6633Z" fill="#0081C6"/>
<path d="M2.78167 21.6633H2.11914V22.329H2.78167V21.6633Z" fill="#0081C6"/>
<path d="M1.7221 21.6633H1.05957V22.329H1.7221V21.6633Z" fill="#0081C6"/>
<path d="M0.665727 21.6633H0V22.329H0.665727V21.6633Z" fill="#0081C6"/>
<path d="M9.14033 18.4873H8.47461V19.153H9.14033V18.4873Z" fill="#0081C6"/>
<path d="M8.07465 18.4873H7.41211V19.153H8.07465V18.4873Z" fill="#0081C6"/>
<path d="M7.02218 18.4873H6.35645V19.153H7.02218V18.4873Z" fill="#0081C6"/>
<path d="M5.9626 18.4873H5.29688V19.153H5.9626V18.4873Z" fill="#0081C6"/>
<path d="M4.90303 18.4873H4.2373V19.153H4.90303V18.4873Z" fill="#0081C6"/>
<path d="M3.84026 18.4873H3.17773V19.153H3.84026V18.4873Z" fill="#0081C6"/>
<path d="M2.78167 18.4873H2.11914V19.153H2.78167V18.4873Z" fill="#0081C6"/>
<path d="M1.7221 18.4873H1.05957V19.153H1.7221V18.4873Z" fill="#0081C6"/>
<path d="M0.665727 18.4873H0V19.153H0.665727V18.4873Z" fill="#0081C6"/>
<path d="M9.14033 17.4286H8.47461V18.0944H9.14033V17.4286Z" fill="#0081C6"/>
<path d="M7.02218 17.4286H6.35645V18.0944H7.02218V17.4286Z" fill="#0081C6"/>
<path d="M4.90303 17.4286H4.2373V18.0944H4.90303V17.4286Z" fill="#0081C6"/>
<path d="M2.78167 17.4286H2.11914V18.0944H2.78167V17.4286Z" fill="#0081C6"/>
<path d="M1.7221 17.4286H1.05957V18.0944H1.7221V17.4286Z" fill="#0081C6"/>
<path d="M0.665727 17.4286H0V18.0944H0.665727V17.4286Z" fill="#0081C6"/>
<path d="M9.14033 16.37H8.47461V17.0357H9.14033V16.37Z" fill="#0081C6"/>
<path d="M7.02218 16.37H6.35645V17.0357H7.02218V16.37Z" fill="#0081C6"/>
<path d="M5.9626 16.37H5.29688V17.0357H5.9626V16.37Z" fill="#0081C6"/>
<path d="M4.90303 16.37H4.2373V17.0357H4.90303V16.37Z" fill="#0081C6"/>
<path d="M3.84026 16.37H3.17773V17.0357H3.84026V16.37Z" fill="#0081C6"/>
<path d="M1.7221 16.37H1.05957V17.0357H1.7221V16.37Z" fill="#0081C6"/>
<path d="M0.665727 16.37H0V17.0357H0.665727V16.37Z" fill="#0081C6"/>
<path d="M9.14033 15.3114H8.47461V15.9771H9.14033V15.3114Z" fill="#0081C6"/>
<path d="M8.07465 15.3114H7.41211V15.9771H8.07465V15.3114Z" fill="#0081C6"/>
<path d="M6.35433 15.3078L6.35352 15.9735L7.01925 15.9744L7.02006 15.3087L6.35433 15.3078Z" fill="#0081C6"/>
<path d="M5.29378 15.3078L5.29297 15.9735L5.95869 15.9744L5.95951 15.3087L5.29378 15.3078Z" fill="#0081C6"/>
<path d="M4.23421 15.3078L4.2334 15.9735L4.89912 15.9744L4.89993 15.3087L4.23421 15.3078Z" fill="#0081C6"/>
<path d="M3.17952 15.3078L3.17871 15.9735L3.84124 15.9744L3.84205 15.3087L3.17952 15.3078Z" fill="#0081C6"/>
<path d="M2.11898 15.3078L2.11816 15.9735L2.78069 15.9744L2.7815 15.3087L2.11898 15.3078Z" fill="#0081C6"/>
<path d="M-0.00309291 15.3078L-0.00390625 15.9735L0.661822 15.9744L0.662635 15.3087L-0.00309291 15.3078Z" fill="#0081C6"/>
<path d="M10.1967 21.6704V21.6576H9.53418V22.3361H9.9215C10.0111 22.2017 10.1039 22.0705 10.1967 21.9393V21.6704Z" fill="#54B948"/>
<path d="M10.1967 20.6231V20.6103H9.53418V21.2728V21.2856H10.1967V20.6231Z" fill="#54B948"/>
<path d="M10.1967 19.5506V19.5346L9.53418 19.5378V20.2003V20.2132H10.1967V19.5506Z" fill="#54B948"/>
<path d="M10.1999 14.0092H9.53418V14.6749H10.1999V14.0092Z" fill="#54B948"/>
<path d="M10.1999 10.856H9.53418V11.5217H10.1999V10.856Z" fill="#54B948"/>
<path d="M10.1999 7.7027H9.53418V8.36842H10.1999V7.7027Z" fill="#54B948"/>
<path d="M10.5908 20.6103V21.276V21.2888H10.6933C10.8725 21.0583 11.0645 20.8343 11.2534 20.6103H10.5908Z" fill="#54B948"/>
<path d="M10.5908 20.2132H11.2565V19.5506V19.5346L10.5908 19.5378V20.2003V20.2132Z" fill="#54B948"/>
<path d="M10.5908 17.0372H11.2565V16.3715V16.3586H10.5908V17.0244V17.0372Z" fill="#54B948"/>
<path d="M11.2565 6.98364H10.5908V7.64937H11.2565V6.98364Z" fill="#54B948"/>
<path d="M11.6494 19.5346V20.1332C11.8351 19.9283 12.0367 19.7331 12.232 19.5346H11.6494Z" fill="#54B948"/>
<path d="M12.3152 18.4015V18.3854H11.6494V19.0512V19.0639H12.3152V18.4015Z" fill="#54B948"/>
<path d="M11.6248 3.83044H10.959V4.49617H11.6248V3.83044Z" fill="#54B948"/>
<path d="M13.3747 14.0092H12.709V14.6749H13.3747V14.0092Z" fill="#54B948"/>
<path d="M14.069 6.63831H13.4033V7.30403H14.069V6.63831Z" fill="#54B948"/>
<path d="M14.7573 3.11707H14.0947V3.7828H14.7573V3.11707Z" fill="#54B948"/>
<path d="M14.434 17.1924V17.1796H13.7715V17.8453V17.8581H13.8035C14.0083 17.6885 14.2228 17.5284 14.4372 17.3652V17.1924H14.434Z" fill="#54B948"/>
<path d="M14.4343 17.0372V16.3715V16.3586H13.7686V17.0244V17.0372H14.4343Z" fill="#54B948"/>
<path d="M14.4343 15.0695V15.0566H13.7686V15.7224V15.7352H14.4343V15.0695Z" fill="#54B948"/>
<path d="M14.4343 14.0092H13.7686V14.6749H14.4343V14.0092Z" fill="#54B948"/>
<path d="M14.4343 12.9562H13.7686V13.6188H14.4343V12.9562Z" fill="#54B948"/>
<path d="M14.4343 11.8976H13.7686V12.5634H14.4343V11.8976Z" fill="#54B948"/>
<path d="M14.4343 10.839H13.7686V11.5047H14.4343V10.839Z" fill="#54B948"/>
<path d="M14.4343 9.42932H13.7686V10.095H14.4343V9.42932Z" fill="#54B948"/>
<path d="M14.4343 8.02533H13.7686V8.69105H14.4343V8.02533Z" fill="#54B948"/>
<path d="M15.4743 4.88898H14.8086V5.5547H15.4743V4.88898Z" fill="#54B948"/>
<path d="M15.4938 16.1279V16.1152H14.8281V16.7937H15.2154C15.3082 16.7297 15.401 16.6689 15.4938 16.6048V16.1279Z" fill="#54B948"/>
<path d="M14.8281 15.0566V15.7224V15.7352H15.4938V15.0695V15.0566H14.8281Z" fill="#54B948"/>
<path d="M15.4938 14.0092H14.8281V14.6749H15.4938V14.0092Z" fill="#54B948"/>
<path d="M15.4938 12.9562H14.8281V13.6188H15.4938V12.9562Z" fill="#54B948"/>
<path d="M15.4938 11.8976H14.8281V12.5634H15.4938V11.8976Z" fill="#54B948"/>
<path d="M15.4938 10.488H14.8281V11.1538H15.4938V10.488Z" fill="#54B948"/>
<path d="M15.4938 9.08392H14.8281V9.74965H15.4938V9.08392Z" fill="#54B948"/>
<path d="M15.4938 6.98364H14.8281V7.64937H15.4938V6.98364Z" fill="#54B948"/>
<path d="M14.4567 5.23438H13.791V5.9001H14.4567V5.23438Z" fill="#54B948"/>
<path d="M15.8877 16.1152V16.336C16.0061 16.2592 16.131 16.1888 16.2494 16.1152H15.8877Z" fill="#54B948"/>
<path d="M16.5534 12.9562H15.8877V13.6188H16.5534V12.9562Z" fill="#54B948"/>
<path d="M17.612 12.9562H16.9463V13.6188H17.612V12.9562Z" fill="#54B948"/>
<path d="M17.612 10.839H16.9463V11.5047H17.612V10.839Z" fill="#54B948"/>
<path d="M17.612 7.31207H16.9463V7.97778H17.612V7.31207Z" fill="#54B948"/>
<path d="M17.612 5.21161H16.9463V5.87733H17.612V5.21161Z" fill="#54B948"/>
<path d="M19.7312 9.77466H19.0654V10.4404H19.7312V9.77466Z" fill="#54B948"/>
<path d="M19.7312 7.65735H19.0654V8.32307H19.7312V7.65735Z" fill="#54B948"/>
<path d="M19.7312 5.5401H19.0654V6.20583H19.7312V5.5401Z" fill="#54B948"/>
<path d="M8.07465 22.6879H7.41211V23.3537H8.07465V22.6879Z" fill="#54B948"/>
<path d="M4.23663 22.7184L4.23535 23.3842L4.90108 23.3855L4.90236 22.7197L4.23663 22.7184Z" fill="#54B948"/>
<path d="M1.7253 22.7218H1.05957V23.3875H1.7253V22.7218Z" fill="#54B948"/>
<path d="M5.9626 21.6633H5.29688V22.329H5.9626V21.6633Z" fill="#54B948"/>
<path d="M3.84347 21.6633H3.17773V22.329H3.84347V21.6633Z" fill="#54B948"/>
<path d="M9.14033 20.6103H8.47461V21.276H9.14033V20.6103Z" fill="#54B948"/>
<path d="M8.08076 20.6103H7.41504V21.276H8.08076V20.6103Z" fill="#54B948"/>
<path d="M7.02218 20.6103H6.35645V21.276H7.02218V20.6103Z" fill="#54B948"/>
<path d="M5.9626 20.6103H5.29688V21.276H5.9626V20.6103Z" fill="#54B948"/>
<path d="M4.90303 20.6103H4.2373V21.276H4.90303V20.6103Z" fill="#54B948"/>
<path d="M3.84347 20.6103H3.17773V21.276H3.84347V20.6103Z" fill="#54B948"/>
<path d="M2.78167 20.6103H2.11914V21.276H2.78167V20.6103Z" fill="#54B948"/>
<path d="M1.7253 20.6103H1.05957V21.276H1.7253V20.6103Z" fill="#54B948"/>
<path d="M0.665727 20.6103H0V21.276H0.665727V20.6103Z" fill="#54B948"/>
<path d="M9.14131 19.5339L8.47559 19.5347L8.47638 20.2005L9.14211 20.1997L9.14131 19.5339Z" fill="#54B948"/>
<path d="M8.08174 19.5339L7.41602 19.5347L7.41681 20.2005L8.08254 20.1997L8.08174 19.5339Z" fill="#54B948"/>
<path d="M7.02218 19.5346H6.35645V20.2003H7.02218V19.5346Z" fill="#54B948"/>
<path d="M5.9626 19.5346H5.29688V20.2003H5.9626V19.5346Z" fill="#54B948"/>
<path d="M4.90303 19.5346H4.2373V20.2003H4.90303V19.5346Z" fill="#54B948"/>
<path d="M3.84347 19.5346H3.17773V20.2003H3.84347V19.5346Z" fill="#54B948"/>
<path d="M2.78167 19.5346H2.11914V20.2003H2.78167V19.5346Z" fill="#54B948"/>
<path d="M1.7253 19.5346H1.05957V20.2003H1.7253V19.5346Z" fill="#54B948"/>
<path d="M0.665727 19.5346H0V20.2003H0.665727V19.5346Z" fill="#54B948"/>
<path d="M8.1033 17.4286H7.4375V18.0944H8.1033V17.4286Z" fill="#54B948"/>
<path d="M5.9594 17.4343H5.29688V18.1001H5.9594V17.4343Z" fill="#54B948"/>
<path d="M3.86494 17.4286H3.19922V18.0944H3.86494V17.4286Z" fill="#54B948"/>
<path d="M8.08076 16.4266H7.41504V17.0924H8.08076V16.4266Z" fill="#54B948"/>
<path d="M2.78167 16.37H2.11914V17.0357H2.78167V16.37Z" fill="#54B948"/>
<path d="M1.7253 15.317H1.05957V15.9827H1.7253V15.317Z" fill="#54B948"/>
</g>
<defs>
<linearGradient id="paint0_linear_825_232" x1="19.3981" y1="-1.56886" x2="19.3981" y2="36.2816" gradientUnits="userSpaceOnUse">
<stop offset="0.15" stop-color="white"/>
<stop offset="0.39" stop-color="#A6CFE9"/>
<stop offset="0.61" stop-color="#5FA9D7"/>
<stop offset="0.79" stop-color="#2B8DCA"/>
<stop offset="0.93" stop-color="#0B7CC2"/>
<stop offset="1" stop-color="#0076C0"/>
</linearGradient>
<linearGradient id="paint1_linear_825_232" x1="13.0265" y1="5.27726" x2="24.9584" y2="28.4657" gradientUnits="userSpaceOnUse">
<stop offset="0.51" stop-color="white"/>
<stop offset="0.62" stop-color="#A6CFE9"/>
<stop offset="0.71" stop-color="#5FA9D7"/>
<stop offset="0.79" stop-color="#2B8DCA"/>
<stop offset="0.85" stop-color="#0B7CC2"/>
<stop offset="0.89" stop-color="#0076C0"/>
</linearGradient>
</defs>
</svg>
